<svg height="464pt" viewBox="0 -11 464 463" width="464pt" xmlns="http://www.w3.org/2000/svg"><path d="m160 40.5h112l40-40h112v416c0 13.253906-10.746094 24-24 24h-256v-384c0-8.835938 7.164062-16 16-16zm0 0" fill="#ffc119"/><path d="m400 440.5c-13.253906 0-24-10.746094-24-24v-184c0-8.835938-7.164062-16-16-16h-280v208c0 8.835938 7.164062 16 16 16zm0 0" fill="#faac2b"/><path d="m80 400.5h136c17.671875 0 32-14.328125 32-32v-144c-.035156-2.703125-.414062-5.394531-1.136719-8h-166.863281zm0 0" fill="#d18d29"/><path d="m168 224.5v-48c0-17.671875-14.328125-32-32-32s-32 14.328125-32 32v48h-32v-48c0-35.347656 28.652344-64 64-64s64 28.652344 64 64v48zm0 0" fill="#ccdce5"/><path d="m56 208.5h160c8.835938 0 16 7.164062 16 16v144c0 8.835938-7.164062 16-16 16h-160c-8.835938 0-16-7.164062-16-16v-144c0-8.835938 7.164062-16 16-16zm0 0" fill="#0093ba"/><g fill="#047fa7"><path d="m232 352.5h80v16h-80zm0 0"/><path d="m312 336.5h-80v-16h76.6875l19.3125-19.3125v-28.6875h16v32c0 2.121094-.84375 4.15625-2.34375 5.65625l-24 24c-1.5 1.5-3.535156 2.34375-5.65625 2.34375zm0 0"/><path d="m328 352.5h16v16h-16zm0 0"/><path d="m328 240.5h16v16h-16zm0 0"/></g><path d="m168 280.5c.074219-15.546875-11.039062-28.898438-26.34375-31.648438-15.300781-2.75-30.367188 5.902344-35.707031 20.503907-5.34375 14.601562.585937 30.929687 14.050781 38.703125v20.441406c0 8.835938 7.164062 16 16 16s16-7.164062 16-16v-20.441406c9.875-5.664063 15.976562-16.171875 16-27.558594zm0 0" fill="#ffc119"/><path d="m384 24.5h16v16h-16zm0 0" fill="#ea732d"/><path d="m352 24.5h16v16h-16zm0 0" fill="#ea732d"/><path d="m280 264.5v-120h8c4.417969 0 8-3.582031 8-8v-32c0-4.417969-3.582031-8-8-8h-32c-4.417969 0-8 3.582031-8 8v32c0 4.417969 3.582031 8 8 8h8v112h-32v16h40c4.417969 0 8-3.582031 8-8zm-16-152h16v16h-16zm0 0" fill="#047fa7"/><path d="m368 64.5h-32c-4.417969 0-8 3.582031-8 8v32c0 4.417969 3.582031 8 8 8h8v28.6875l-45.65625 45.65625c-1.5 1.5-2.34375 3.535156-2.34375 5.65625v96h-64v16h72c4.417969 0 8-3.582031 8-8v-100.6875l45.65625-45.65625c1.5-1.5 2.34375-3.535156 2.34375-5.65625v-32h8c4.417969 0 8-3.582031 8-8v-32c0-4.417969-3.582031-8-8-8zm-8 32h-16v-16h16zm0 0" fill="#047fa7"/><path d="m0 232.5h16v136h-16zm0 0" fill="#ccdce5"/><path d="m448 24.5h16v152h-16zm0 0" fill="#ccdce5"/><path d="m448 192.5h16v16h-16zm0 0" fill="#ccdce5"/><path d="m232 352.5h16v16h-16zm0 0" fill="#06687f"/><path d="m232 320.5h16v16h-16zm0 0" fill="#06687f"/><path d="m232 288.5h16v16h-16zm0 0" fill="#06687f"/><path d="m232 256.5h16v16h-16zm0 0" fill="#06687f"/></svg>